<?xml version="1.0" encoding="utf-8"?>
<!-- Generator: Adobe Illustrator 27.2.0, SVG Export Plug-In . SVG Version: 6.00 Build 0)  -->
<svg version="1.1" id="Layer_1" xmlns="http://www.w3.org/2000/svg" xmlns:xlink="http://www.w3.org/1999/xlink" x="0px" y="0px"
	 viewBox="0 0 24 24" style="enable-background:new 0 0 24 24;" xml:space="preserve">
<style type="text/css">
	.st0{fill-rule:evenodd;clip-rule:evenodd;fill:#FFFFFF;fill-opacity:0.25;}
</style>
<g id="lock-open">
	<path id="Vector" class="st0" d="M5.4,7.9c0-3.6,2.8-6.5,6.4-6.5c2.2,0,4.2,1.1,5.3,2.8c0.3,0.5,0.2,1.1-0.3,1.4
		c-0.5,0.3-1.1,0.2-1.4-0.3c-0.8-1.2-2.1-2-3.6-2c-2.4,0-4.4,1.9-4.4,4.4h10c1.6,0,2.8,1.3,2.8,2.8v9.1c0,1.5-1.2,2.8-2.8,2.8H6.6
		c-1.6,0-2.8-1.3-2.8-2.8v-9.1c0-1.1,0.6-2.1,1.6-2.6C5.4,8,5.4,8,5.4,7.9z M6.6,9.8c-0.4,0-0.8,0.4-0.8,0.8v9.1
		c0,0.5,0.4,0.8,0.8,0.8h10.8c0.4,0,0.8-0.4,0.8-0.8v-9.1c0-0.5-0.4-0.8-0.8-0.8H6.6z M12,12.8c0.6,0,1,0.4,1,1v2.4c0,0.6-0.4,1-1,1
		c-0.6,0-1-0.4-1-1v-2.4C11,13.2,11.4,12.8,12,12.8z"/>
</g>
</svg>
