<svg width="64" height="64" viewBox="0 0 64 64" fill="none" xmlns="http://www.w3.org/2000/svg">
<rect x="1.5" y="1.5" width="61" height="61" rx="30.5" fill="url(#paint0_linear_30268_3171)" fill-opacity="0.2"/>
<rect x="1.5" y="1.5" width="61" height="61" rx="30.5" stroke="url(#paint1_linear_30268_3171)" stroke-width="3"/>
<g filter="url(#filter0_d_30268_3171)">
<path d="M42.6072 24.2384C41.8772 23.5182 40.6935 23.5182 39.9635 24.2384L28.8056 35.2459L24.3461 30.8465C23.6161 30.1263 22.4324 30.1263 21.7023 30.8465C20.9723 31.5667 20.9723 32.7344 21.7023 33.4547L27.4793 39.1537C27.4807 39.1552 27.4822 39.1566 27.4837 39.1581C27.5749 39.2481 27.6733 39.3269 27.7769 39.3944C28.5026 39.867 29.4886 39.7883 30.1274 39.1581C30.1289 39.1566 30.1304 39.1552 30.1318 39.1538L42.6072 26.8466C43.3373 26.1263 43.3373 24.9586 42.6072 24.2384Z" fill="url(#paint2_linear_30268_3171)"/>
</g>
<defs>
<filter id="filter0_d_30268_3171" x="17.1548" y="19.6982" width="30" height="24" filterUnits="userSpaceOnUse" color-interpolation-filters="sRGB">
<feFlood flood-opacity="0" result="BackgroundImageFix"/>
<feColorMatrix in="SourceAlpha" type="matrix" values="0 0 0 0 0 0 0 0 0 0 0 0 0 0 0 0 0 0 127 0" result="hardAlpha"/>
<feOffset/>
<feGaussianBlur stdDeviation="2"/>
<feComposite in2="hardAlpha" operator="out"/>
<feColorMatrix type="matrix" values="0 0 0 0 0 0 0 0 0 0.788235 0 0 0 0 0.313726 0 0 0 1 0"/>
<feBlend mode="normal" in2="BackgroundImageFix" result="effect1_dropShadow_30268_3171"/>
<feBlend mode="normal" in="SourceGraphic" in2="effect1_dropShadow_30268_3171" result="shape"/>
</filter>
<linearGradient id="paint0_linear_30268_3171" x1="32" y1="0" x2="32" y2="64" gradientUnits="userSpaceOnUse">
<stop stop-color="#05DF72"/>
<stop offset="1" stop-color="#00A63E"/>
</linearGradient>
<linearGradient id="paint1_linear_30268_3171" x1="32" y1="0" x2="32" y2="64" gradientUnits="userSpaceOnUse">
<stop stop-color="#05DF72"/>
<stop offset="1" stop-color="#00A63E"/>
</linearGradient>
<linearGradient id="paint2_linear_30268_3171" x1="32.1548" y1="23.6982" x2="32.1548" y2="39.6982" gradientUnits="userSpaceOnUse">
<stop stop-color="#05DF72"/>
<stop offset="1" stop-color="#00C950"/>
</linearGradient>
</defs>
</svg>
